# xmcd
# 
# Track frame offsets:
#     156
#     45938
#     90085
#     132838
#     158699
#     211052
#     235146
#     266882
#     295969
#     345030
# 
# Disc length: 4713
# 
# Revision: 1
# Processed by: cddbd v1.5.2PL0 Copyright (c) Steve Scherf et al.
# Submitted via: fre:ac v1.0.27
# 
DISCID=7812670a
DTITLE=John Petrucci and Jordan Rudess - John Petrucci and Jordan Rudess   "An Evening With..."
DYEAR=2004
DGENRE=Instrumental Rock
TTITLE0=Furia Taurina
TTITLE1=Truth
TTITLE2=Fife and Drum
TTITLE3=State of Grace
TTITLE4=Hang 11
TTITLE5=From Within
TTITLE6=The Rena Song
TTITLE7=In the Moment
TTITLE8=Black Ice
TTITLE9=Bite of the Mosquito (Studio Version)
EXTD=
EXTT0=
EXTT1=
EXTT2=
EXTT3=
EXTT4=
EXTT5=
EXTT6=
EXTT7=
EXTT8=
EXTT9=
PLAYORDER=
